<svg xmlns="http://www.w3.org/2000/svg" viewBox="0 0 30 30"><defs><style>.cls-1{fill:#224f91;}</style></defs><title>backup</title><g id="Layer_10" data-name="Layer 10"><path class="cls-1" d="M15,5A10,10,0,0,0,5,14.6L3.71,13.29,2.29,14.71,6,18.41l3.71-3.71L8.29,13.29,7,14.57A8,8,0,1,1,15,23v2A10,10,0,0,0,15,5Z"/><path class="cls-1" d="M14,10h2a0,0,0,0,1,0,0v5a1,1,0,0,1-1,1h0a1,1,0,0,1-1-1V10A0,0,0,0,1,14,10Z"/><path class="cls-1" d="M16,13h0a1,1,0,0,1,1,1v3a0,0,0,0,1,0,0H15a0,0,0,0,1,0,0V14A1,1,0,0,1,16,13Z" transform="translate(1.01 31) rotate(-90)"/></g></svg>