<svg xmlns="http://www.w3.org/2000/svg" viewBox="0 0 30 30"><defs><style>.cls-1{fill:#224f91;}.cls-2{fill:#2d5ca6;}</style></defs><title>chat</title><g id="Layer_10" data-name="Layer 10"><path class="cls-1" d="M10,25.79a1,1,0,0,1-1-1V21.93A7,7,0,0,1,3,15V11a7,7,0,0,1,7-7H20a7,7,0,0,1,7,7v4a7,7,0,0,1-7,7H14.27L10.7,25.5A1,1,0,0,1,10,25.79ZM10,6a5,5,0,0,0-5,5v4a5,5,0,0,0,5,5,1,1,0,0,1,1,1v1.41l2.16-2.12a1,1,0,0,1,.7-.29H20a5,5,0,0,0,5-5V11a5,5,0,0,0-5-5Z"/><path class="cls-2" d="M20,12H10a1,1,0,0,1,0-2H20a1,1,0,0,1,0,2Z"/><path class="cls-2" d="M16,16H10a1,1,0,0,1,0-2h6a1,1,0,0,1,0,2Z"/></g></svg>