<svg id="Layer_5" data-name="Layer 5" xmlns="http://www.w3.org/2000/svg" viewBox="0 0 30 30"><defs><style>.cls-1{fill:#224f91;}.cls-2{fill:#2d5ca6;}</style></defs><title>creative-commons</title><path class="cls-1" d="M15,3A12,12,0,1,0,27,15,12,12,0,0,0,15,3Zm0,22A10,10,0,1,1,25,15,10,10,0,0,1,15,25Z"/><path class="cls-2" d="M11.59,17A2,2,0,1,1,13,13.59l1.41-1.41a4,4,0,1,0,0,5.66L13,16.41A2,2,0,0,1,11.59,17Z"/><path class="cls-2" d="M19.59,17A2,2,0,1,1,21,13.59l1.41-1.41a4,4,0,1,0,0,5.66L21,16.41A2,2,0,0,1,19.59,17Z"/></svg>