<svg xmlns="http://www.w3.org/2000/svg" viewBox="0 0 30 30"><defs><style>.cls-1{fill:#224f91;}</style></defs><title>edit</title><g id="Layer_10" data-name="Layer 10"><path class="cls-1" d="M20.41,15.24a.93.93,0,0,0,.06-.1l1.35-1.32a4,4,0,0,0,0-5.66,4.09,4.09,0,0,0-5.67,0L14.85,9.52l-.1.06a.93.93,0,0,0-.07.11L8.28,16.3A1,1,0,0,0,8,17v3.59l-.71.71a1,1,0,1,0,1.41,1.41L9.41,22H13a1,1,0,0,0,.7-.28l6.61-6.4A.94.94,0,0,0,20.41,15.24Zm0-5.66a2,2,0,0,1,0,2.82l-.72.71L16.89,10.3l.7-.72A2,2,0,0,1,20.41,9.59ZM12.59,20H10V17.41l5.49-5.67,2.78,2.78Z"/><path class="cls-1" d="M22,21H17.13a1,1,0,0,0,0,2H22a1,1,0,0,0,0-2Z"/></g></svg>