<svg xmlns="http://www.w3.org/2000/svg" viewBox="0 0 30 30"><defs><style>.cls-1{fill:#224f91;}</style></defs><title>hide_1</title><g id="Layer_10" data-name="Layer 10"><path class="cls-1" d="M26.62,14.27A15,15,0,0,0,15.78,9a6,6,0,0,0-.64,0c-.19,0-.38,0-.56,0l-2,.21a12.59,12.59,0,0,0-1.93.46,19.58,19.58,0,0,0-1.88.72,12.71,12.71,0,0,0-1.78,1c-.44.31-1.3,1-1.72,1.31a12.64,12.64,0,0,0-1.6,1.6l-.52.64a4.73,4.73,0,0,0,1.2,1.58,16,16,0,0,1,1.42-1.58l.07-.07,1,3.55a15.07,15.07,0,0,0,2.43,1.34L7.52,13.4a13,13,0,0,1,1.77-1.08l2.19,8.18a14.56,14.56,0,0,0,2.17.39l-2.5-9.35a13,13,0,0,1,1.93-.45l2.63,9.82,2-.24a15,15,0,0,0,8.9-5.11A1,1,0,0,0,26.62,14.27Zm-7.48.64a4,4,0,0,1-2,3.45l-.41-1.52a2.47,2.47,0,0,0,.95-1.94,2.49,2.49,0,0,0-2.12-2.46l-.41-1.54h0A4,4,0,0,1,19.14,14.92Zm1.27,2.87a6,6,0,0,0,0-5.74,13,13,0,0,1,4.11,2.88A12.94,12.94,0,0,1,20.41,17.78Z"/></g></svg>