<svg xmlns="http://www.w3.org/2000/svg" viewBox="0 0 30 30"><defs><style>.cls-1{fill:#224f91;}</style></defs><title>language</title><g id="Layer_10" data-name="Layer 10"><path class="cls-1" d="M15.72,8H17V6H11V4H9V6H3V8H13.65A11.19,11.19,0,0,1,10,13.7,11.1,11.1,0,0,1,7.1,10H4.92a13.09,13.09,0,0,0,3.43,4.89,18.09,18.09,0,0,1-3.66,1.66l.63,1.9A19.26,19.26,0,0,0,10,16.19a19.2,19.2,0,0,0,4.68,2.26l.63-1.9a17.93,17.93,0,0,1-3.64-1.66A13.29,13.29,0,0,0,15.72,8Z"/><path class="cls-1" d="M24.5,26H27L20.64,12H19.36L13,26h2.5l1.3-3H23.2Zm-6.84-5L20,15.58,22.34,21Z"/></g></svg>