<svg xmlns="http://www.w3.org/2000/svg" viewBox="0 0 30 30"><defs><style>.cls-1{fill:#224f91;}</style></defs><title>link</title><g id="Layer_10" data-name="Layer 10"><path class="cls-1" d="M19,16H11a1,1,0,0,1,0-2h8a1,1,0,0,1,0,2Z"/><path class="cls-1" d="M8,17a2,2,0,0,1-2-2.34A2.08,2.08,0,0,1,8.11,13H13a.21.21,0,0,0,.18-.33A4,4,0,0,0,10,11H8.18A4.12,4.12,0,0,0,4,14.6,4,4,0,0,0,8,19h2a4,4,0,0,0,3.23-1.67A.21.21,0,0,0,13,17Z"/><path class="cls-1" d="M21.82,11H20a4,4,0,0,0-3.23,1.67A.21.21,0,0,0,17,13h4.93A2.08,2.08,0,0,1,24,14.66,2,2,0,0,1,22,17H17a.21.21,0,0,0-.18.33A4,4,0,0,0,20,19h2a4,4,0,0,0,4-4.4A4.12,4.12,0,0,0,21.82,11Z"/></g></svg>