<svg xmlns="http://www.w3.org/2000/svg" viewBox="0 0 30 30"><defs><style>.cls-1{fill:#224f91;}</style></defs><title>location</title><g id="Layer_10" data-name="Layer 10"><path class="cls-1" d="M15.21,27a1,1,0,0,1-.58-.19c-.35-.25-8.52-6.24-8.68-14.64a9,9,0,1,1,18-.34h0c.16,8.4-7.78,14.69-8.12,15A1,1,0,0,1,15.21,27ZM14.94,5h-.13a7,7,0,0,0-6.87,7.13c.12,6.16,5.41,11.06,7.24,12.57,1.77-1.58,6.88-6.69,6.76-12.84h0A7,7,0,0,0,14.94,5Z"/><path class="cls-1" d="M14.94,15a3,3,0,0,1-.05-6A3.13,3.13,0,0,1,17,9.84,3,3,0,0,1,15,15Zm0-4h0a1,1,0,0,0-.68,1.72A1,1,0,0,0,15,13a1,1,0,0,0,1-1h0a1,1,0,0,0-1-1Z"/></g></svg>