<svg xmlns="http://www.w3.org/2000/svg" viewBox="0 0 30 30"><defs><style>.cls-1{fill:#224f91;}</style></defs><title>money</title><g id="Layer_10" data-name="Layer 10"><path class="cls-1" d="M9.5,3C5.79,3,3,4.72,3,7V23c0,2.28,2.79,4,6.5,4S16,25.28,16,23V7C16,4.72,13.21,3,9.5,3Zm0,2C12.25,5,14,6.18,14,7S12.25,9,9.5,9,5,7.82,5,7,6.75,5,9.5,5Zm0,20C6.75,25,5,23.82,5,23V21.93A9.08,9.08,0,0,0,9.5,23,9.08,9.08,0,0,0,14,21.93V23C14,23.82,12.25,25,9.5,25Zm0-4C6.75,21,5,19.82,5,19V17.93A9.08,9.08,0,0,0,9.5,19,9.08,9.08,0,0,0,14,17.93V19C14,19.82,12.25,21,9.5,21Zm0-4C6.75,17,5,15.82,5,15V13.93A9.08,9.08,0,0,0,9.5,15,9.08,9.08,0,0,0,14,13.93V15C14,15.82,12.25,17,9.5,17Zm0-4C6.75,13,5,11.82,5,11V9.93A9.08,9.08,0,0,0,9.5,11,9.08,9.08,0,0,0,14,9.93V11C14,11.82,12.25,13,9.5,13Z"/><path class="cls-1" d="M20.5,7a10.65,10.65,0,0,0-2.5.29V9.38A8,8,0,0,1,20.5,9c2.75,0,4.5,1.18,4.5,2s-1.75,2-4.5,2a8,8,0,0,1-2.5-.38v2.09a10.59,10.59,0,0,0,2.5.29A9.08,9.08,0,0,0,25,13.93V15c0,.82-1.75,2-4.5,2a8,8,0,0,1-2.5-.38v2.09a10.59,10.59,0,0,0,2.5.29A9.08,9.08,0,0,0,25,17.93V19c0,.82-1.75,2-4.5,2a8,8,0,0,1-2.5-.38v2.09a10.65,10.65,0,0,0,2.5.29c3.71,0,6.5-1.72,6.5-4V11C27,8.72,24.21,7,20.5,7Z"/></g></svg>