<svg xmlns="http://www.w3.org/2000/svg" viewBox="0 0 30 30"><defs><style>.cls-1{fill:#224f91;}</style></defs><title>phone</title><g id="Layer_10" data-name="Layer 10"><path class="cls-1" d="M20,27H10a3,3,0,0,1-3-3V6a3,3,0,0,1,3-3H20a3,3,0,0,1,3,3V24A3,3,0,0,1,20,27ZM10,5A1,1,0,0,0,9,6V24a1,1,0,0,0,1,1H20a1,1,0,0,0,1-1V6a1,1,0,0,0-1-1Z"/><rect class="cls-1" x="14" y="21" width="2" height="2" rx="1" ry="1"/><rect class="cls-1" x="11" y="21" width="2" height="2" rx="1" ry="1"/><rect class="cls-1" x="17" y="21" width="2" height="2" rx="1" ry="1"/><path class="cls-1" d="M16,9H14a1,1,0,0,1,0-2h2a1,1,0,0,1,0,2Z"/></g></svg>