<svg xmlns="http://www.w3.org/2000/svg" viewBox="0 0 30 30"><defs><style>.cls-1{fill:#224f91;}</style></defs><title>print</title><g id="Layer_10" data-name="Layer 10"><path class="cls-1" d="M23,8H22V3H8V8H7a4,4,0,0,0-4,4v8a3,3,0,0,0,3,3H8v4H22V23h2a3,3,0,0,0,3-3V12A4,4,0,0,0,23,8ZM10,5H20V8H10ZM20,25H10V19H20Zm5-5a1,1,0,0,1-1,1H22V19a1,1,0,0,0,0-2H8a1,1,0,0,0,0,2v2H6a1,1,0,0,1-1-1V12a2,2,0,0,1,2-2H23a2,2,0,0,1,2,2Z"/><path class="cls-1" d="M13,23h4a1,1,0,0,0,0-2H13a1,1,0,0,0,0,2Z"/><path class="cls-1" d="M22,12H21a1,1,0,0,0,0,2h1a1,1,0,0,0,0-2Z"/></g></svg>