<svg xmlns="http://www.w3.org/2000/svg" viewBox="0 0 30 30"><defs><style>.cls-1{fill:#224f91;}.cls-2{fill:#2d5ca6;}</style></defs><title>reminder</title><g id="Layer_10" data-name="Layer 10"><path class="cls-1" d="M15.86,24h-2a1,1,0,0,1,0-2h2a1,1,0,0,1,0,2Z"/><path class="cls-2" d="M22.86,21h-16a1,1,0,0,1,0-2,1.31,1.31,0,0,0,1.29-1.12L9.3,9.82a5.61,5.61,0,0,1,11.11,0l1.15,8.06A1.31,1.31,0,0,0,22.86,19a1,1,0,1,1,0,2Zm-13-2h9.93a3.33,3.33,0,0,1-.24-.84h0L18.43,10.1a3.61,3.61,0,0,0-7.15,0l-1.15,8.06A3.33,3.33,0,0,1,9.89,19Z"/></g></svg>