<svg xmlns="http://www.w3.org/2000/svg" viewBox="0 0 30 30"><defs><style>.cls-1{fill:#224f91;}</style></defs><title>settings-big</title><g id="Layer_10" data-name="Layer 10"><path class="cls-1" d="M25,15c0-.25,0-.5,0-.74l2-.36-.35-2-2,.36a9.91,9.91,0,0,0-.51-1.39l1.78-1-1-1.73-1.79,1A10.08,10.08,0,0,0,22.16,8l1.32-1.58L21.95,5.17,20.63,6.74A10,10,0,0,0,19.34,6L20,4.07l-1.88-.68-.7,1.94A9.91,9.91,0,0,0,16,5.05V3H14V5.05a9.91,9.91,0,0,0-1.46.27l-.7-1.94L10,4.07,10.66,6a10,10,0,0,0-1.29.74L8.05,5.17,6.52,6.45,7.84,8A10.08,10.08,0,0,0,6.9,9.17l-1.79-1-1,1.73,1.78,1a9.91,9.91,0,0,0-.51,1.39l-2-.36L3,13.9l2,.36c0,.25,0,.49,0,.74s0,.5,0,.74L3,16.1l.35,2,2-.36a9.9,9.9,0,0,0,.51,1.39l-1.78,1,1,1.73,1.79-1A10.08,10.08,0,0,0,7.84,22L6.52,23.55l1.53,1.29,1.32-1.57a10,10,0,0,0,1.29.74L10,25.93l1.88.68.7-1.94a9.91,9.91,0,0,0,1.46.27V27h2V24.95a9.91,9.91,0,0,0,1.46-.27l.7,1.94L20,25.93,19.34,24a10,10,0,0,0,1.29-.74l1.32,1.57,1.53-1.29L22.16,22a10.08,10.08,0,0,0,.95-1.14l1.79,1,1-1.73-1.78-1a9.9,9.9,0,0,0,.51-1.39l2,.36.35-2-2-.36C25,15.5,25,15.25,25,15Zm-2,0a8,8,0,1,1-8-8A8,8,0,0,1,23,15Z"/><path class="cls-1" d="M15,9a6,6,0,1,0,6,6A6,6,0,0,0,15,9Zm0,10a4,4,0,1,1,4-4A4,4,0,0,1,15,19Z"/></g></svg>