<svg xmlns="http://www.w3.org/2000/svg" viewBox="0 0 30 30"><defs><style>.cls-1{fill:#224f91;}</style></defs><title>settings-small</title><g id="Layer_10" data-name="Layer 10"><path class="cls-1" d="M25,15h0a1,1,0,0,0-1-1h-.23a1,1,0,0,1-1-.74q-.07-.33-.17-.65a1,1,0,0,1,.47-1.12l.2-.11A1,1,0,0,0,23.66,10h0a1,1,0,0,0-1.37-.37l-.21.12a1,1,0,0,1-1.21-.16q-.23-.25-.47-.47a1,1,0,0,1-.16-1.21l.12-.21A1,1,0,0,0,20,6.34h0a1,1,0,0,0-1.37.37l-.11.2a1,1,0,0,1-1.12.47l-.65-.17a1,1,0,0,1-.74-1V6a1,1,0,0,0-1-1h0a1,1,0,0,0-1,1v.23a1,1,0,0,1-.74,1l-.65.17a1,1,0,0,1-1.12-.47l-.11-.2A1,1,0,0,0,10,6.34h0a1,1,0,0,0-.37,1.37l.12.21a1,1,0,0,1-.16,1.21q-.25.23-.47.47a1,1,0,0,1-1.21.16l-.21-.12A1,1,0,0,0,6.34,10h0a1,1,0,0,0,.37,1.37l.2.11a1,1,0,0,1,.47,1.12q-.1.32-.17.65a1,1,0,0,1-1,.74H6a1,1,0,0,0-1,1H5a1,1,0,0,0,1,1h.23a1,1,0,0,1,1,.74q.07.33.17.65a1,1,0,0,1-.46,1.12l-.2.11A1,1,0,0,0,6.34,20h0a1,1,0,0,0,1.37.37l.21-.12a1,1,0,0,1,1.21.16q.23.25.47.47a1,1,0,0,1,.16,1.21l-.12.21A1,1,0,0,0,10,23.66h0a1,1,0,0,0,1.37-.37l.11-.2a1,1,0,0,1,1.12-.47l.65.17a1,1,0,0,1,.74,1V24a1,1,0,0,0,1,1h0a1,1,0,0,0,1-1v-.23a1,1,0,0,1,.74-1l.65-.17a1,1,0,0,1,1.12.47l.11.2a1,1,0,0,0,1.37.37h0a1,1,0,0,0,.37-1.37l-.12-.21a1,1,0,0,1,.16-1.21q.25-.23.47-.47a1,1,0,0,1,1.21-.16l.21.12A1,1,0,0,0,23.66,20h0a1,1,0,0,0-.37-1.37l-.2-.11a1,1,0,0,1-.46-1.12q.1-.32.17-.65a1,1,0,0,1,1-.74H24A1,1,0,0,0,25,15Zm-4.15-1.37a6,6,0,1,1-4.47-4.47A6,6,0,0,1,20.85,13.63Z"/><path class="cls-1" d="M16.09,11.14a4,4,0,0,0-4.94,4.94,4,4,0,0,0,2.77,2.77,4,4,0,0,0,4.94-4.94A4,4,0,0,0,16.09,11.14ZM15,17a2,2,0,1,1,2-2A2,2,0,0,1,15,17Z"/></g></svg>