<svg xmlns="http://www.w3.org/2000/svg" viewBox="0 0 30 30"><defs><style>.cls-1{fill:#224f91;}</style></defs><title>signal</title><g id="Layer_10" data-name="Layer 10"><path class="cls-1" d="M15,19a4,4,0,1,1,4-4A4,4,0,0,1,15,19Zm0-6a2,2,0,1,0,2,2A2,2,0,0,0,15,13Z"/><path class="cls-1" d="M9,15a6,6,0,0,1,1.76-4.24L9.35,9.35a8,8,0,0,0,0,11.31l1.41-1.41A6,6,0,0,1,9,15Z"/><path class="cls-1" d="M5,15A10,10,0,0,1,7.93,7.93L6.52,6.52a12,12,0,0,0,0,17l1.41-1.41A10,10,0,0,1,5,15Z"/><path class="cls-1" d="M20.65,9.35l-1.41,1.41a6,6,0,0,1,0,8.48l1.41,1.41a8,8,0,0,0,0-11.31Z"/><path class="cls-1" d="M23.48,6.52,22.07,7.93a10,10,0,0,1,0,14.14l1.41,1.41a12,12,0,0,0,0-17Z"/></g></svg>