<svg xmlns="http://www.w3.org/2000/svg" viewBox="0 0 30 30"><defs><style>.cls-1{fill:#224f91;}</style></defs><title>sound-off</title><g id="Layer_10" data-name="Layer 10"><path class="cls-1" d="M13,20.87,8.64,17.23A1,1,0,0,0,8,17H6V13H8a1,1,0,0,0,.62-.22L6.84,11H5a1,1,0,0,0-1,1v6a1,1,0,0,0,1,1H7.64l5.72,4.77A1,1,0,0,0,15,23V19.16l-2-2Z"/><path class="cls-1" d="M23,21.63A9,9,0,0,0,18.12,6.07a1,1,0,0,0-1.12,1h0a1,1,0,0,0,.86,1,7,7,0,0,1,3.77,12.17l-1.43-1.43A4.93,4.93,0,0,0,22,15a5,5,0,0,0-3.75-4.84,1,1,0,0,0-1.25,1h0a1,1,0,0,0,.8,1,3,3,0,0,1,1,5.28L15,13.59V7a1,1,0,0,0-1.64-.77l-3.12,2.6L7.71,6.29A1,1,0,0,0,6.29,7.71l16,16a1,1,0,0,0,1.41-1.41Zm-10-10-1.34-1.34L13,9.13Z"/></g></svg>