<svg xmlns="http://www.w3.org/2000/svg" viewBox="0 0 30 30"><defs><style>.cls-1{fill:#224f91;}</style></defs><title>sound-on</title><g id="Layer_10" data-name="Layer 10"><path class="cls-1" d="M14,24a1,1,0,0,1-.64-.23L7.64,19H5a1,1,0,0,1-1-1V12a1,1,0,0,1,1-1H7.64l5.72-4.77A1,1,0,0,1,15,7V23a1,1,0,0,1-1,1ZM6,17H8a1,1,0,0,1,.64.23L13,20.87V9.13L8.64,12.77A1,1,0,0,1,8,13H6Z"/><path class="cls-1" d="M17,20V18a3,3,0,0,0,0-6V10a5,5,0,0,1,0,10Z"/><path class="cls-1" d="M17,24V22A7,7,0,0,0,17,8V6a9,9,0,0,1,0,18Z"/></g></svg>