<svg xmlns="http://www.w3.org/2000/svg" viewBox="0 0 30 30"><defs><style>.cls-1{fill:#224f91;}</style></defs><title>time</title><g id="Layer_10" data-name="Layer 10"><path class="cls-1" d="M15,24a9,9,0,1,1,9-9A9,9,0,0,1,15,24ZM15,8a7,7,0,1,0,7,7A7,7,0,0,0,15,8Z"/><path class="cls-1" d="M14,10h2a0,0,0,0,1,0,0v5a1,1,0,0,1-1,1h0a1,1,0,0,1-1-1V10A0,0,0,0,1,14,10Z"/><path class="cls-1" d="M16,13h0a1,1,0,0,1,1,1v3a0,0,0,0,1,0,0H15a0,0,0,0,1,0,0V14A1,1,0,0,1,16,13Z" transform="translate(1 31) rotate(-90)"/></g></svg>