<svg xmlns="http://www.w3.org/2000/svg" viewBox="0 0 30 30"><defs><style>.cls-1{fill:#224f91;}.cls-2{opacity:0.6;}</style></defs><title>user-big</title><g id="Layer_10" data-name="Layer 10"><path class="cls-1" d="M15,27a12.19,12.19,0,0,1-7.64-2.76L7,23.95V23.5c0-2,2-3.12,3.46-3.93a8.74,8.74,0,0,0,1.3-.81,2.78,2.78,0,0,0-.42-.67A6.26,6.26,0,0,1,10,14a4.86,4.86,0,0,1,5-5,4.86,4.86,0,0,1,5,5,6.26,6.26,0,0,1-1.38,4.08,2.78,2.78,0,0,0-.42.67,8.74,8.74,0,0,0,1.3.81C21,20.38,23,21.48,23,23.5v.45l-.33.3A12.19,12.19,0,0,1,15,27ZM9.13,23.09A10.39,10.39,0,0,0,15,25a10.31,10.31,0,0,0,5.87-1.91,6,6,0,0,0-2.33-1.78c-1.21-.67-2.35-1.3-2.35-2.44a3.26,3.26,0,0,1,.82-2A4.28,4.28,0,0,0,18,14a2.91,2.91,0,0,0-3-3,2.91,2.91,0,0,0-3,3,4.28,4.28,0,0,0,1,2.91,3.26,3.26,0,0,1,.82,2c0,1.14-1.14,1.77-2.35,2.44A6,6,0,0,0,9.13,23.09Z"/><g class="cls-2"><path class="cls-1" d="M6.22,19.78a10,10,0,1,1,17.53,0A1,1,0,0,0,23.94,21h0a1,1,0,0,0,1.57-.22,11.9,11.9,0,0,0,1.42-7A12,12,0,0,0,3,15a11.88,11.88,0,0,0,1.51,5.79A1,1,0,0,0,6,21l0,0A1,1,0,0,0,6.22,19.78Z"/></g></g></svg>