<svg xmlns="http://www.w3.org/2000/svg" viewBox="0 0 30 30"><defs><style>.cls-1{fill:#224f91;}</style></defs><title>user</title><g id="Layer_10" data-name="Layer 10"><path class="cls-1" d="M15,24a9,9,0,1,1,9-9A9,9,0,0,1,15,24ZM15,8a7,7,0,1,0,7,7A7,7,0,0,0,15,8Z"/><path class="cls-1" d="M15,24a9,9,0,0,1-6.91-3.24,1,1,0,0,1,.15-1.43,10.92,10.92,0,0,1,2.63-1.52,5,5,0,1,1,8.26,0,10.92,10.92,0,0,1,2.63,1.52,1,1,0,0,1,.15,1.43A9,9,0,0,1,15,24Zm-4.6-3.73a7,7,0,0,0,9.2,0,8.93,8.93,0,0,0-2.54-1,1,1,0,0,1-.34-1.79,3,3,0,1,0-3.43,0,1,1,0,0,1-.34,1.79A8.93,8.93,0,0,0,10.4,20.27Z"/></g></svg>