<svg xmlns="http://www.w3.org/2000/svg" viewBox="0 0 30 30"><defs><style>.cls-1{fill:#224f91;}.cls-2{opacity:0.6;}</style></defs><title>wait</title><g id="Layer_10" data-name="Layer 10"><path class="cls-1" d="M17.86,27H12.14a4,4,0,0,1-3.43-6l3.51-6L8.72,9a4,4,0,0,1,3.43-6h5.71a4,4,0,0,1,3.43,6l-3.51,6,3.51,6A4,4,0,0,1,17.86,27Zm-5.72-2h5.73a2,2,0,0,0,1.69-2.94l-3.8-6.56a1,1,0,0,1,0-1l3.8-6.56A2,2,0,0,0,17.87,5H12.13a2,2,0,0,0-1.69,2.94l3.8,6.56a1,1,0,0,1,0,1l-3.8,6.56A2,2,0,0,0,12.13,25Z"/><g class="cls-2"><polygon class="cls-1" points="15 12 18 7 12 7 15 12"/><polygon class="cls-1" points="15 19 13 23 17 23 15 19"/></g><path class="cls-1" d="M23,5H7A1,1,0,0,1,7,3H23a1,1,0,0,1,0,2Z"/><path class="cls-1" d="M23,27H7a1,1,0,1,1,0-2H23a1,1,0,0,1,0,2Z"/></g></svg>